<?xml version="1.0" encoding="UTF-8"?>
<svg version="1.1" xmlns="http://www.w3.org/2000/svg" width="32" height="32">
<path d="M0 0 C0.804375 -0.00128906 1.60875 -0.00257812 2.4375 -0.00390625 C3.283125 -0.00003906 4.12875 0.00382812 5 0.0078125 C6.2684375 0.00201172 6.2684375 0.00201172 7.5625 -0.00390625 C8.366875 -0.00261719 9.17125 -0.00132813 10 0 C10.7425 0.00112793 11.485 0.00225586 12.25 0.00341797 C14 0.1328125 14 0.1328125 15 1.1328125 C15.09993532 3.1933656 15.13080906 5.2573384 15.1328125 7.3203125 C15.13474609 9.20363281 15.13474609 9.20363281 15.13671875 11.125 C15.13357666 12.11064941 15.13357666 12.11064941 15.13037109 13.11621094 C15.12502234 15.12442585 15.13031691 17.13241709 15.13671875 19.140625 C15.13542969 20.39617188 15.13414063 21.65171875 15.1328125 22.9453125 C15.13168457 24.10675781 15.13055664 25.26820312 15.12939453 26.46484375 C15 29.1328125 15 29.1328125 14 30.1328125 C12.66956375 30.2311846 11.33406656 30.26359842 10 30.265625 C9.195625 30.26691406 8.39125 30.26820312 7.5625 30.26953125 C6.716875 30.26566406 5.87125 30.26179688 5 30.2578125 C4.154375 30.26167969 3.30875 30.26554687 2.4375 30.26953125 C1.633125 30.26824219 0.82875 30.26695313 0 30.265625 C-0.7425 30.26449707 -1.485 30.26336914 -2.25 30.26220703 C-4 30.1328125 -4 30.1328125 -5 29.1328125 C-5.09993532 27.0722594 -5.13080906 25.0082866 -5.1328125 22.9453125 C-5.13410156 21.68976562 -5.13539063 20.43421875 -5.13671875 19.140625 C-5.13462402 18.48352539 -5.1325293 17.82642578 -5.13037109 17.14941406 C-5.12502234 15.14119915 -5.13031691 13.13320791 -5.13671875 11.125 C-5.13542969 9.86945312 -5.13414062 8.61390625 -5.1328125 7.3203125 C-5.13112061 5.57814453 -5.13112061 5.57814453 -5.12939453 3.80078125 C-4.92745031 -0.36307991 -3.77372917 0.00573266 0 0 Z " fill="#FFFEFE" transform="translate(11,0.8671875)"/>
<path d="M0 0 C0.804375 -0.00128906 1.60875 -0.00257812 2.4375 -0.00390625 C3.283125 -0.00003906 4.12875 0.00382812 5 0.0078125 C6.2684375 0.00201172 6.2684375 0.00201172 7.5625 -0.00390625 C8.366875 -0.00261719 9.17125 -0.00132813 10 0 C10.7425 0.00112793 11.485 0.00225586 12.25 0.00341797 C14 0.1328125 14 0.1328125 15 1.1328125 C15.09993532 3.1933656 15.13080906 5.2573384 15.1328125 7.3203125 C15.13474609 9.20363281 15.13474609 9.20363281 15.13671875 11.125 C15.13357666 12.11064941 15.13357666 12.11064941 15.13037109 13.11621094 C15.12502234 15.12442585 15.13031691 17.13241709 15.13671875 19.140625 C15.13542969 20.39617188 15.13414063 21.65171875 15.1328125 22.9453125 C15.13168457 24.10675781 15.13055664 25.26820312 15.12939453 26.46484375 C15 29.1328125 15 29.1328125 14 30.1328125 C12.66956375 30.2311846 11.33406656 30.26359842 10 30.265625 C9.195625 30.26691406 8.39125 30.26820312 7.5625 30.26953125 C6.716875 30.26566406 5.87125 30.26179688 5 30.2578125 C4.154375 30.26167969 3.30875 30.26554687 2.4375 30.26953125 C1.633125 30.26824219 0.82875 30.26695313 0 30.265625 C-0.7425 30.26449707 -1.485 30.26336914 -2.25 30.26220703 C-4 30.1328125 -4 30.1328125 -5 29.1328125 C-5.09993532 27.0722594 -5.13080906 25.0082866 -5.1328125 22.9453125 C-5.13410156 21.68976562 -5.13539063 20.43421875 -5.13671875 19.140625 C-5.13462402 18.48352539 -5.1325293 17.82642578 -5.13037109 17.14941406 C-5.12502234 15.14119915 -5.13031691 13.13320791 -5.13671875 11.125 C-5.13542969 9.86945312 -5.13414062 8.61390625 -5.1328125 7.3203125 C-5.13112061 5.57814453 -5.13112061 5.57814453 -5.12939453 3.80078125 C-4.92745031 -0.36307991 -3.77372917 0.00573266 0 0 Z M-3 5.1328125 C-3 11.4028125 -3 17.6728125 -3 24.1328125 C2.28 24.1328125 7.56 24.1328125 13 24.1328125 C13 17.8628125 13 11.5928125 13 5.1328125 C7.72 5.1328125 2.44 5.1328125 -3 5.1328125 Z " fill="#FD7F45" transform="translate(11,0.8671875)"/>
<path d="M0 0 C0.66 0.33 1.32 0.66 2 1 C6.14503661 1.24787017 6.14503661 1.24787017 10 0 C10 0.66 10 1.32 10 2 C10.66 2 11.32 2 12 2 C11.39009109 5.55780196 10.4216319 8.6828589 9 12 C6.36 12 3.72 12 1 12 C-1.03435531 8.27034861 -2 6.33094958 -2 2 C-1.34 2 -0.68 2 0 2 C0 1.34 0 0.68 0 0 Z " fill="#FD915D" transform="translate(11,10)"/>
<path d="M0 0 C0.66 0.33 1.32 0.66 2 1 C2.625 3.0625 2.625 3.0625 3 5 C5.64 5 8.28 5 11 5 C11.66 3.35 12.32 1.7 13 0 C13.66 0 14.32 0 15 0 C15 2.97 15 5.94 15 9 C9.72 9 4.44 9 -1 9 C-1 1 -1 1 0 0 Z " fill="#FFF5F1" transform="translate(9,16)"/>
<path d="M0 0 C5.28 0 10.56 0 16 0 C15.67 1.32 15.34 2.64 15 4 C10.38 4 5.76 4 1 4 C0.67 2.68 0.34 1.36 0 0 Z " fill="#F7DBA3" transform="translate(8,26)"/>
<path d="M0 0 C4.62 0 9.24 0 14 0 C14.33 0.99 14.66 1.98 15 3 C9.72 3 4.44 3 -1 3 C-0.67 2.01 -0.34 1.02 0 0 Z " fill="#F8CA91" transform="translate(9,2)"/>
<path d="M0 0 C2.64 0 5.28 0 8 0 C7.67 1.65 7.34 3.3 7 5 C5.02 5 3.04 5 1 5 C0.67 3.35 0.34 1.7 0 0 Z " fill="#FFDCCC" transform="translate(12,16)"/>
<path d="M0 0 C0.33 0.66 0.66 1.32 1 2 C1.66 2 2.32 2 3 2 C2.39009109 5.55780196 1.4216319 8.6828589 0 12 C-1.24546405 9.50907189 -0.7767578 8.58919267 0 6 C-0.66 5.67 -1.32 5.34 -2 5 C-1.34 3.35 -0.68 1.7 0 0 Z " fill="#FE9463" transform="translate(20,10)"/>
<path d="M0 0 C1.32 0 2.64 0 4 0 C4 0.66 4 1.32 4 2 C5.65 2 7.3 2 9 2 C9 2.33 9 2.66 9 3 C4.38 3 -0.24 3 -5 3 C-5 2.67 -5 2.34 -5 2 C-3.35 2 -1.7 2 0 2 C0 1.34 0 0.68 0 0 Z " fill="#F9B87F" transform="translate(14,27)"/>
<path d="M0 0 C1.98 0 3.96 0 6 0 C6 0.66 6 1.32 6 2 C6.99 2.33 7.98 2.66 9 3 C6.36 3 3.72 3 1 3 C0.67 2.01 0.34 1.02 0 0 Z " fill="#FBB889" transform="translate(13,12)"/>
</svg>
